<svg width="18" height="18" viewBox="0 0 18 18" fill="none" xmlns="http://www.w3.org/2000/svg">
<path d="M10.875 8.38044C9.11003 10.2291 7.34429 14.7667 7.34429 14.7667C7.34429 14.7667 4.82181 8.38044 2.30005 6.90625" stroke="black" stroke-width="1.07187" stroke-linecap="round" stroke-linejoin="round"/>
<path d="M14.8024 4.46019L15.1068 7.62151C15.304 9.67236 13.767 11.4981 11.7161 11.6961C9.70386 11.889 7.88095 10.4184 7.6873 8.40612C7.64117 7.92762 7.68975 7.44471 7.83027 6.98499C7.97079 6.52527 8.2005 6.09773 8.50628 5.72679C8.81205 5.35585 9.1879 5.04878 9.61237 4.82312C10.0368 4.59746 10.5016 4.45762 10.9801 4.4116L14.3501 4.08718C14.4043 4.08195 14.459 4.08746 14.511 4.10338C14.5631 4.1193 14.6115 4.14533 14.6535 4.17997C14.6955 4.21461 14.7303 4.25718 14.7558 4.30527C14.7814 4.35335 14.7972 4.40599 14.8024 4.46019Z" stroke="black" stroke-width="1.07187" stroke-linecap="round" stroke-linejoin="round"/>
</svg>
