<svg width="18" height="18" viewBox="0 0 18 18" fill="none" xmlns="http://www.w3.org/2000/svg">
<path d="M7.45317 5.7057L6.33127 5.06257C6.70286 4.47661 7.2245 4.04786 7.81761 3.83349C7.77348 3.68946 7.68454 3.56328 7.56373 3.47331C7.44291 3.38334 7.29653 3.33428 7.1459 3.33328V1.90411C7.69613 1.90411 8.19634 2.11134 8.57507 2.45434V3.33328C8.89663 3.33328 9.15388 3.54766 9.24677 3.83349C8.45359 4.10503 7.81046 4.79818 7.45317 5.7057ZM7.1459 8.33536C7.1459 7.78513 7.31025 7.26349 7.57465 6.84188L6.61711 6.2988C6.07402 6.50603 5.71673 7.02053 5.71673 7.62078V8.33536C5.71673 13.3732 9.21819 15.3383 10.7403 15.9528C8.86804 14.4951 7.1459 12.0512 7.1459 8.33536ZM4.59484 5.7057L3.47294 5.06257C3.84452 4.47661 4.36617 4.04786 4.95927 3.83349C4.91515 3.68946 4.82621 3.56328 4.70539 3.47331C4.58458 3.38334 4.4382 3.33428 4.28757 3.33328V1.90411C4.83779 1.90411 5.338 2.11134 5.71673 2.45434V3.33328C6.03829 3.33328 6.29554 3.54766 6.38844 3.83349C5.59525 4.10503 4.95213 4.79818 4.59484 5.7057ZM4.28757 8.33536C4.28757 7.78513 4.45192 7.26349 4.71632 6.84188L3.75877 6.2988C3.21569 6.50603 2.8584 7.02053 2.8584 7.62078V8.33536C2.8584 13.3732 6.35986 15.3383 7.88192 15.9528C6.00971 14.4951 4.28757 12.0512 4.28757 8.33536ZM13.5771 6.3917L12.6839 6.9062L11.4334 6.19161L10.1829 6.9062L9.28965 6.3917C8.8609 6.6418 8.57507 7.09913 8.57507 7.62078V8.33536C8.57507 14.7666 14.2917 16.1958 14.2917 16.1958V7.62078C14.2917 7.09913 14.0059 6.6418 13.5771 6.3917ZM9.09671 5.21263L10.1829 5.83432L11.4334 5.11974L12.6839 5.83432L13.7701 5.21263C13.3771 4.51949 12.7983 4.00499 12.1265 3.79776C12.066 3.27701 11.8165 2.79658 11.4253 2.44755C11.0341 2.09852 10.5285 1.90516 10.0042 1.90411V3.33328C10.3186 3.33328 10.5759 3.54051 10.6759 3.82634C10.0257 4.04786 9.47544 4.54807 9.09671 5.21263Z" fill="black"/>
</svg>
