<svg width="20" height="20" fill="none" xmlns="http://www.w3.org/2000/svg"><path d="M4.014.92a1.671 1.671 0 0 0-1.577 1.115h-.094A2.228 2.228 0 0 0 .114 4.263v5.34a3.9 3.9 0 0 0 .412 1.743l.702 1.405a2.786 2.786 0 0 0 2.492 1.54h2.03c1.203 0 2.217-.77 2.805-1.68a8.958 8.958 0 0 1 4.033-3.379.557.557 0 0 0 .322-.647c-.164-.656-.468-1.129-.882-1.43a2.11 2.11 0 0 0-1.26-.385c-.224 0-.438.03-.627.067V4.263a2.228 2.228 0 0 0-2.228-2.228h-.095A1.671 1.671 0 0 0 6.242.921H4.014Zm0 1.115h.557V7.05a.557.557 0 0 0 1.114 0V2.035h.557a.557.557 0 0 1 .557.557V7.05a.557.557 0 0 0 1.114 0v-3.9a1.114 1.114 0 0 1 1.114 1.114v3.343a.557.557 0 0 0 .805.499l.012-.006.053-.023a2.06 2.06 0 0 1 .214-.078c.185-.06.421-.114.658-.114.233 0 .438.052.602.172.129.097.232.224.302.37a10.043 10.043 0 0 0-4.054 3.58c-.451.7-1.154 1.17-1.87 1.17H3.72a1.671 1.671 0 0 1-1.495-.924l-.701-1.404a2.785 2.785 0 0 1-.295-1.246V4.263A1.114 1.114 0 0 1 2.343 3.15v3.9a.557.557 0 0 0 1.114 0V2.592a.557.557 0 0 1 .557-.557Zm9.76 5.629a6.13 6.13 0 1 1-6.796 7.547c.371-.12.717-.291 1.031-.496a5.016 5.016 0 0 0 9.931-.982 5.016 5.016 0 0 0-3.904-4.89 1.668 1.668 0 0 0-.044-.529 4.395 4.395 0 0 0-.217-.65Zm-2.797 6.07a.835.835 0 1 0 0-1.671.835.835 0 0 0 0 1.67Zm4.735-.836a.835.835 0 1 1-1.67 0 .835.835 0 0 1 1.67 0Zm-4.515 2.814a.558.558 0 1 0-.996.5c.275.55 1.17 1.42 2.726 1.42 1.557 0 2.45-.87 2.726-1.42a.558.558 0 1 0-.996-.5c-.096.192-.613.807-1.73.807s-1.635-.615-1.73-.807Z" fill="#1A1A1A"/></svg>