<svg width="20" height="20" viewBox="0 0 20 20" fill="none" xmlns="http://www.w3.org/2000/svg">
<path d="M4.01372 0.920929C3.66798 0.920748 3.33069 1.02781 3.04834 1.22735C2.76598 1.42689 2.55247 1.70909 2.43722 2.03506H2.34252C1.75155 2.03506 1.18478 2.26982 0.766901 2.68771C0.349021 3.10559 0.114258 3.67235 0.114258 4.26333V9.60225C0.114472 10.2076 0.255607 10.8045 0.526487 11.3459L1.22839 12.7508C1.45971 13.2134 1.81529 13.6025 2.25529 13.8745C2.69529 14.1464 3.20233 14.2905 3.71959 14.2905H5.74954C6.9528 14.2905 7.96666 13.5218 8.55492 12.6104C9.53089 11.1061 10.9359 9.9293 12.5881 9.23236C12.71 9.18038 12.8093 9.08667 12.8683 8.96803C12.9274 8.84939 12.9422 8.71361 12.9101 8.58505C12.7463 7.92882 12.4421 7.45643 12.0277 7.15561C11.6599 6.89613 11.2187 6.76106 10.7687 6.77012C10.5436 6.77012 10.3297 6.79909 10.1414 6.83697V4.26333C10.1414 3.67235 9.90668 3.10559 9.4888 2.68771C9.07092 2.26982 8.50416 2.03506 7.91318 2.03506H7.81848C7.70323 1.70909 7.48972 1.42689 7.20737 1.22735C6.92502 1.02781 6.58773 0.920748 6.24199 0.920929H4.01372ZM4.01372 2.03506H4.57079V7.04866C4.57079 7.1964 4.62948 7.33809 4.73395 7.44256C4.83842 7.54703 4.98011 7.60572 5.12785 7.60572C5.2756 7.60572 5.41729 7.54703 5.52176 7.44256C5.62623 7.33809 5.68492 7.1964 5.68492 7.04866V2.03506H6.24199C6.38973 2.03506 6.53142 2.09375 6.63589 2.19822C6.74036 2.30269 6.79905 2.44438 6.79905 2.59213V7.04866C6.79905 7.1964 6.85774 7.33809 6.96221 7.44256C7.06668 7.54703 7.20837 7.60572 7.35612 7.60572C7.50386 7.60572 7.64555 7.54703 7.75002 7.44256C7.85449 7.33809 7.91318 7.1964 7.91318 7.04866V3.14919C8.20867 3.14919 8.49205 3.26658 8.70099 3.47552C8.90993 3.68446 9.02732 3.96784 9.02732 4.26333V7.60572C9.02732 7.70051 9.05151 7.79372 9.09759 7.87655C9.14368 7.95938 9.21013 8.02908 9.29067 8.07905C9.37121 8.12903 9.46317 8.15763 9.55785 8.16214C9.65253 8.16666 9.74679 8.14694 9.83172 8.10485L9.84398 8.09928L9.89745 8.07589C9.94648 8.05472 10.02 8.02575 10.1114 7.9979C10.2963 7.93773 10.5325 7.88426 10.7687 7.88426C11.0016 7.88426 11.2066 7.93551 11.3715 8.05583C11.5 8.15346 11.6035 8.28024 11.6734 8.42572C10.0199 9.22606 8.61756 10.4646 7.61905 12.0065C7.16783 12.7062 6.46481 13.1764 5.74954 13.1764H3.71959C3.40906 13.1764 3.10468 13.0898 2.84059 12.9265C2.57649 12.7632 2.36313 12.5295 2.22442 12.2517L1.52252 10.8478C1.32912 10.4611 1.22842 10.0346 1.22839 9.60225V4.26333C1.22839 3.96784 1.34577 3.68446 1.55471 3.47552C1.76365 3.26658 2.04704 3.14919 2.34252 3.14919V7.04866C2.34252 7.1964 2.40121 7.33809 2.50568 7.44256C2.61015 7.54703 2.75185 7.60572 2.89959 7.60572C3.04733 7.60572 3.18902 7.54703 3.29349 7.44256C3.39796 7.33809 3.45665 7.1964 3.45665 7.04866V2.59213C3.45665 2.44438 3.51535 2.30269 3.61982 2.19822C3.72429 2.09375 3.86598 2.03506 4.01372 2.03506ZM13.7746 7.66366C14.8765 7.81761 15.9157 8.26859 16.7808 8.96825C17.6458 9.66791 18.3041 10.5898 18.685 11.6352C19.0659 12.6805 19.1551 13.8098 18.943 14.902C18.7309 15.9942 18.2255 17.008 17.481 17.8348C16.7365 18.6616 15.7809 19.2701 14.7169 19.5951C13.6528 19.9201 12.5204 19.9493 11.441 19.6796C10.3616 19.4099 9.37595 18.8515 8.58979 18.0642C7.80363 17.277 7.24659 16.2906 6.97843 15.2108C7.34943 15.0905 7.69481 14.92 8.009 14.715C8.25608 15.9322 8.94602 17.0145 9.94523 17.7523C10.9444 18.4901 12.1819 18.8309 13.4179 18.7087C14.654 18.5866 15.8007 18.0101 16.6362 17.091C17.4716 16.1719 17.9364 14.9755 17.9404 13.7334C17.9404 12.5964 17.5541 11.4931 16.8447 10.6044C16.1354 9.71576 15.1452 9.09447 14.0365 8.84241C14.0499 8.66513 14.0348 8.48684 13.9919 8.31431C13.9365 8.0921 13.8639 7.87455 13.7746 7.66366ZM10.977 13.7334C11.0868 13.7334 11.1954 13.7118 11.2968 13.6698C11.3982 13.6279 11.4903 13.5663 11.5679 13.4887C11.6455 13.4111 11.707 13.319 11.749 13.2176C11.791 13.1162 11.8126 13.0076 11.8126 12.8979C11.8126 12.7881 11.791 12.6795 11.749 12.5781C11.707 12.4767 11.6455 12.3846 11.5679 12.307C11.4903 12.2294 11.3982 12.1679 11.2968 12.1259C11.1954 12.0839 11.0868 12.0623 10.977 12.0623C10.7554 12.0623 10.5429 12.1503 10.3862 12.307C10.2295 12.4637 10.1414 12.6762 10.1414 12.8979C10.1414 13.1195 10.2295 13.332 10.3862 13.4887C10.5429 13.6454 10.7554 13.7334 10.977 13.7334ZM15.7121 12.8979C15.7121 13.1195 15.6241 13.332 15.4674 13.4887C15.3107 13.6454 15.0981 13.7334 14.8765 13.7334C14.6549 13.7334 14.4424 13.6454 14.2857 13.4887C14.1289 13.332 14.0409 13.1195 14.0409 12.8979C14.0409 12.6762 14.1289 12.4637 14.2857 12.307C14.4424 12.1503 14.6549 12.0623 14.8765 12.0623C15.0981 12.0623 15.3107 12.1503 15.4674 12.307C15.6241 12.4637 15.7121 12.6762 15.7121 12.8979ZM11.1965 15.7121C11.1641 15.6462 11.1189 15.5873 11.0636 15.5388C11.0083 15.4904 10.944 15.4534 10.8743 15.4299C10.8046 15.4064 10.731 15.397 10.6577 15.4022C10.5843 15.4073 10.5127 15.4269 10.447 15.4598C10.3813 15.4928 10.3227 15.5384 10.2747 15.5941C10.2267 15.6497 10.1902 15.7144 10.1673 15.7842C10.1444 15.8541 10.1355 15.9278 10.1412 16.0011C10.1469 16.0744 10.1671 16.1458 10.2005 16.2113C10.4757 16.7628 11.3703 17.6329 12.9268 17.6329C14.4843 17.6329 15.3779 16.7628 15.6531 16.2113C15.6865 16.1458 15.7067 16.0744 15.7124 16.0011C15.7181 15.9278 15.7092 15.8541 15.6863 15.7842C15.6634 15.7144 15.6269 15.6497 15.5788 15.5941C15.5308 15.5384 15.4723 15.4928 15.4066 15.4598C15.3408 15.4269 15.2692 15.4073 15.1959 15.4022C15.1225 15.397 15.0489 15.4064 14.9792 15.4299C14.9096 15.4534 14.8452 15.4904 14.7899 15.5388C14.7346 15.5873 14.6895 15.6462 14.657 15.7121C14.5612 15.9038 14.0443 16.5188 12.9268 16.5188C11.8104 16.5188 11.2923 15.9038 11.1965 15.7121Z" fill="#1A1A1A"/>
</svg>
