<svg width="18" height="18" viewBox="0 0 18 18" fill="none" xmlns="http://www.w3.org/2000/svg">
<path d="M10.0451 6.46462L11.45 5.05903C11.2838 4.89287 11.1611 4.68829 11.0929 4.4634C11.0246 4.23851 11.0129 4.00026 11.0587 3.76975C11.1045 3.53924 11.2064 3.32358 11.3555 3.14188C11.5046 2.96017 11.6961 2.81804 11.9132 2.72805C12.1303 2.63806 12.3663 2.60301 12.6002 2.62599C12.8341 2.64897 13.0587 2.72928 13.2541 2.8598C13.4496 2.99032 13.6098 3.16702 13.7207 3.37426C13.8315 3.5815 13.8895 3.81288 13.8896 4.0479C14.1247 4.04773 14.3562 4.10555 14.5636 4.21624C14.771 4.32694 14.9478 4.48707 15.0785 4.68247C15.2092 4.87787 15.2897 5.10249 15.3129 5.33643C15.336 5.57037 15.3011 5.8064 15.2112 6.02361C15.1213 6.24082 14.9792 6.4325 14.7975 6.58167C14.6158 6.73083 14.4001 6.83288 14.1695 6.87875C13.939 6.92463 13.7007 6.91292 13.4757 6.84467C13.2507 6.77642 13.0461 6.65374 12.8799 6.48749L11.5794 7.78874M5.6719 11.9083L6.38648 12.6229M4.53142 13.7634C6.48438 15.717 8.74747 16.6217 9.58353 15.7849C10.421 14.9474 9.51636 12.6851 7.56269 10.7321C5.60973 8.77844 3.34665 7.87378 2.51058 8.71055C1.67309 9.54805 2.57775 11.8104 4.53142 13.7634Z" stroke="black" stroke-width="1.42917" stroke-linecap="round" stroke-linejoin="round"/>
<path d="M9.58416 15.7849C12.3746 12.9937 13.0535 9.14784 11.0998 7.19489C9.14683 5.24122 5.30095 5.92007 2.5105 8.71052" stroke="black" stroke-width="1.42917" stroke-linecap="round" stroke-linejoin="round"/>
</svg>
